<svg width="163" height="20" viewBox="0 0 163 20" fill="none" xmlns="http://www.w3.org/2000/svg">
<path d="M22.8459 12.5206L22.7597 11.7013C22.7401 11.5915 22.7205 11.4857 22.697 11.3759C22.697 11.372 22.697 11.3681 22.6931 11.3642C22.6107 10.9761 22.4931 10.5958 22.3363 10.1999L22.058 9.59624C21.5915 8.69071 20.929 7.89495 20.1294 7.2599C20.5802 6.79342 20.9212 6.22893 21.1211 5.60565C21.2583 5.17837 21.3289 4.7354 21.3289 4.28851C21.3289 3.83771 21.2583 3.39475 21.1211 2.96747C20.5488 1.19169 18.9102 0 17.0482 0H12.0267C11.2426 0 10.6037 0.638967 10.6037 1.42297C10.6037 2.20698 11.2426 2.84595 12.0267 2.84595H17.0482C17.5147 2.84595 17.9577 3.07723 18.2281 3.46923C18.3967 3.71227 18.4829 3.99452 18.4829 4.29244C18.4829 4.58644 18.3967 4.86868 18.2281 5.11172C17.9577 5.50373 17.5147 5.73501 17.0482 5.73501L10.7605 5.72325C9.97648 5.72325 9.33751 6.36221 9.33751 7.14622C9.33751 7.93022 9.97648 8.56919 10.7722 8.56919L15.9976 8.57703C18.0988 8.71815 19.7805 10.341 19.9882 12.4422C19.9882 12.4422 20.0078 12.795 20.0078 12.8655C20.0078 15.1705 18.2007 17.0561 15.9075 17.158L10 17.1619C8.09879 17.1619 6.29949 16.4132 4.94316 15.0568C3.58683 13.7005 2.8381 11.9051 2.8381 10C2.8381 8.86319 3.10859 7.75382 3.62211 6.75422C3.61427 6.88358 3.61035 7.01293 3.61035 7.1423C3.61035 11.0819 6.81301 14.2846 10.7526 14.2846H15.7036C16.4876 14.2846 17.1266 13.6456 17.1266 12.8616C17.1266 12.0776 16.4876 11.4386 15.7036 11.4386H10.7526C8.38495 11.4386 6.45629 9.50999 6.45629 7.1423C6.45629 6.13485 6.77774 5.14701 7.36182 4.36692C7.44022 4.26108 7.52254 4.16307 7.60878 4.06507C7.73422 3.92395 7.87142 3.79852 8.01254 3.66915C8.25166 3.44179 8.50254 3.21051 8.71031 2.9165C9.05919 2.4265 9.17679 1.92474 9.05919 1.46218C9.01215 1.28185 8.92983 1.12113 8.80831 0.980007C8.41238 0.521364 7.78518 0.474324 7.44414 0.490004C6.57389 0.525284 5.63309 0.999604 5.00196 1.35633C4.26108 1.77185 3.56723 2.30497 2.9361 2.9361C1.04273 4.82947 0 7.3383 0 10C0 12.6617 1.04273 15.1705 2.9361 17.0639C4.82556 18.9573 7.33438 20 10 20H15.9153C19.7413 19.8902 22.8499 16.6876 22.8499 12.8616C22.8538 12.7519 22.8499 12.6382 22.8459 12.5206Z" fill="#D80C18"/>
<path d="M50.2548 18.7181C48.9651 18.7181 47.695 18.4947 46.4563 18.0517C45.2136 17.6088 44.0847 16.9267 43.0694 16.0055L45.2724 13.3673C46.0486 13.9984 46.8404 14.4963 47.6558 14.8687C48.4712 15.2411 49.361 15.4253 50.3293 15.4253C51.1054 15.4253 51.7052 15.2842 52.1325 15.002C52.5598 14.7197 52.7754 14.3277 52.7754 13.8299V13.7828C52.7754 13.5398 52.7322 13.3281 52.6421 13.1399C52.5519 12.9557 52.3834 12.7793 52.1325 12.6186C51.8777 12.4579 51.5327 12.2971 51.0897 12.1325C50.6468 11.9718 50.0666 11.8032 49.3532 11.6229C48.4947 11.4112 47.7185 11.1799 47.0208 10.9212C46.3269 10.6625 45.735 10.345 45.2489 9.96472C44.7628 9.58448 44.3865 9.11407 44.1199 8.54958C43.8534 7.9851 43.7201 7.28341 43.7201 6.44453V6.39749C43.7201 5.62132 43.8651 4.92356 44.1513 4.30419C44.4414 3.68091 44.8451 3.14778 45.3665 2.69306C45.8879 2.24225 46.5112 1.89337 47.2324 1.65033C47.9537 1.40728 48.7534 1.28577 49.6237 1.28577C50.8663 1.28577 52.007 1.47001 53.0498 1.84242C54.0925 2.21482 55.0451 2.74795 55.9192 3.43787L53.9827 6.2446C53.2262 5.72716 52.4814 5.31948 51.7562 5.02155C51.0309 4.72363 50.3018 4.57468 49.5766 4.57468C48.8514 4.57468 48.3065 4.71579 47.942 4.99804C47.5774 5.28028 47.3971 5.63308 47.3971 6.05252V6.09956C47.3971 6.37396 47.448 6.61309 47.5539 6.81301C47.6597 7.01293 47.8479 7.19718 48.1223 7.3579C48.4006 7.51862 48.7769 7.6715 49.2512 7.81654C49.7295 7.96158 50.3332 8.13014 51.0584 8.32614C51.9169 8.5535 52.6852 8.80831 53.3555 9.09055C54.0258 9.37279 54.5943 9.70991 55.0529 10.1058C55.5115 10.5018 55.8643 10.9643 56.0995 11.4975C56.3347 12.0306 56.4523 12.6656 56.4523 13.4104V13.4575C56.4523 14.2964 56.2995 15.0412 55.9976 15.6958C55.6919 16.3504 55.2685 16.8992 54.7236 17.3422C54.1787 17.7852 53.5241 18.1262 52.7714 18.3575C52.0149 18.6005 51.176 18.7181 50.2548 18.7181Z" fill="black"/>
<path d="M58.8279 1.53271H71.5837V4.84906H62.5088V8.28301H70.4939V11.5993H62.5088V15.1587H71.7052V18.4751H58.8279V1.53271Z" fill="black"/>
<path d="M82.7714 18.7652C81.5288 18.7652 80.3763 18.5379 79.31 18.0871C78.2438 17.6363 77.3265 17.0169 76.5503 16.2368C75.7742 15.4528 75.1705 14.5316 74.7354 13.4653C74.3002 12.3991 74.0807 11.2623 74.0807 10.051V10.004C74.0807 8.79267 74.3002 7.65978 74.7354 6.60137C75.1705 5.54296 75.7742 4.61783 76.5503 3.81814C77.3265 3.01846 78.2516 2.39126 79.3336 1.9287C80.4155 1.47006 81.6072 1.23877 82.9165 1.23877C83.7083 1.23877 84.4296 1.30541 85.0842 1.43085C85.7389 1.56021 86.3308 1.73662 86.8639 1.96398C87.3971 2.19134 87.8871 2.46574 88.3418 2.78719C88.7926 3.10863 89.212 3.46535 89.6001 3.85343L87.2285 6.58961C86.566 5.99376 85.8918 5.52336 85.2058 5.18624C84.5198 4.84912 83.7475 4.67663 82.893 4.67663C82.1834 4.67663 81.5249 4.81384 80.9212 5.08824C80.3175 5.36264 79.7961 5.74288 79.361 6.22505C78.9259 6.70721 78.5848 7.2717 78.3457 7.90674C78.1027 8.54571 77.9812 9.22387 77.9812 9.953V10C77.9812 10.7252 78.1027 11.4112 78.3457 12.0581C78.5888 12.7049 78.922 13.2693 79.3492 13.7515C79.7765 14.2376 80.294 14.6178 80.8977 14.9001C81.5013 15.1823 82.1677 15.3234 82.893 15.3234C83.8612 15.3234 84.6805 15.147 85.3508 14.7903C86.0211 14.4336 86.6875 13.9514 87.3461 13.3399L89.7177 15.735C89.2826 16.2015 88.8318 16.621 88.3614 16.9934C87.8949 17.3658 87.3814 17.6833 86.8247 17.9499C86.2681 18.2164 85.6605 18.4163 84.998 18.5535C84.3394 18.6947 83.5946 18.7652 82.7714 18.7652Z" fill="black"/>
<path d="M101.078 18.7652C99.7726 18.7652 98.5692 18.5339 97.4716 18.0753C96.3739 17.6167 95.4253 16.9934 94.6256 16.2133C93.8259 15.4293 93.2066 14.512 92.7636 13.4536C92.3206 12.3952 92.0972 11.2623 92.0972 10.051V10.004C92.0972 8.79267 92.3246 7.65978 92.7754 6.60137C93.2262 5.54296 93.8534 4.61783 94.6531 3.81814C95.4527 3.01846 96.4053 2.39126 97.5108 1.9287C98.6162 1.47006 99.8236 1.23877 101.129 1.23877C102.434 1.23877 103.638 1.47006 104.735 1.9287C105.833 2.38734 106.782 3.01063 107.581 3.79071C108.381 4.57472 109 5.492 109.443 6.5504C109.886 7.60881 110.11 8.74171 110.11 9.953V10C110.11 11.2113 109.882 12.3442 109.432 13.3987C108.981 14.4571 108.354 15.3822 107.554 16.1819C106.754 16.9816 105.802 17.6088 104.7 18.0714C103.591 18.5339 102.383 18.7652 101.078 18.7652ZM101.125 15.3274C101.866 15.3274 102.552 15.1902 103.183 14.9158C103.81 14.6414 104.347 14.2611 104.794 13.7789C105.237 13.2929 105.586 12.7323 105.837 12.0973C106.088 11.4583 106.213 10.7762 106.213 10.051V10.004C106.213 9.27876 106.088 8.59275 105.837 7.94595C105.586 7.29914 105.233 6.73465 104.771 6.25249C104.312 5.77033 103.767 5.38617 103.136 5.10393C102.505 4.82168 101.819 4.68056 101.078 4.68056C100.321 4.68056 99.6315 4.81775 99.0082 5.09215C98.3888 5.36656 97.8557 5.74681 97.4088 6.22897C96.9659 6.71114 96.617 7.27561 96.37 7.91066C96.1191 8.54962 95.9937 9.22779 95.9937 9.95691V10.004C95.9937 10.7292 96.1191 11.4152 96.37 12.062C96.6209 12.7088 96.9737 13.2733 97.4363 13.7554C97.8949 14.2415 98.4359 14.6218 99.0592 14.904C99.6785 15.1862 100.368 15.3274 101.125 15.3274Z" fill="black"/>
<path d="M112.481 1.53271H115.919L123.857 11.9639V1.53271H127.538V18.4751H124.367L116.162 7.70284V18.4751H112.481V1.53271Z" fill="black"/>
<path d="M130.596 1.53271H137.205C138.53 1.53271 139.741 1.7444 140.847 2.17561C141.952 2.60289 142.905 3.1948 143.7 3.95529C144.5 4.71186 145.116 5.60563 145.551 6.62875C145.986 7.65188 146.205 8.76125 146.205 9.95685V10.0039C146.205 11.1995 145.986 12.3128 145.551 13.3438C145.116 14.3747 144.496 15.2724 143.7 16.029C142.901 16.7856 141.948 17.3853 140.847 17.8204C139.741 18.2556 138.526 18.4751 137.205 18.4751H130.596V1.53271ZM137.201 15.1117C137.962 15.1117 138.655 14.9902 139.283 14.7471C139.914 14.5041 140.447 14.1591 140.894 13.7083C141.337 13.2575 141.686 12.7244 141.936 12.109C142.187 11.4974 142.313 10.8114 142.313 10.0509V10.0039C142.313 9.26302 142.187 8.57701 141.936 7.94589C141.686 7.31476 141.341 6.77772 140.894 6.32299C140.451 5.87219 139.914 5.51938 139.283 5.2685C138.651 5.01762 137.958 4.89218 137.201 4.89218H134.32V15.1078H137.201V15.1117Z" fill="black"/>
<path d="M147.903 15.6409L157.225 4.79809H148.197V1.53271H162.015V4.36298L152.697 15.2058H162.015V18.4751H147.903V15.6409Z" fill="black"/>
<path fill-rule="evenodd" clip-rule="evenodd" d="M26.2525 6.53081H30.0235C30.047 5.95065 30.1999 5.31168 30.737 4.99808C31.2819 4.67664 32.0227 4.60608 32.646 4.60608H33.9396C34.3434 4.60608 34.7511 4.61392 35.1509 4.65704C35.4449 4.6884 35.7468 4.75503 36.0094 4.89615C36.2446 5.0216 36.421 5.20585 36.5308 5.44497C36.6601 5.72329 36.6915 6.06825 36.6915 6.37009C36.6915 6.87577 36.5582 7.3697 36.1192 7.66371C35.637 7.98515 34.8334 8.03218 34.2689 8.03218H31.9287V11.3721H34.4218C34.9824 11.3721 35.5782 11.4661 36.0564 11.7797C36.5856 12.1286 36.6915 12.8303 36.6915 13.4144C36.6915 13.7515 36.6601 14.1396 36.519 14.4532C36.4093 14.7002 36.2446 14.9079 36.0173 15.049C35.7821 15.198 35.5077 15.2764 35.2332 15.3156C34.9 15.3626 34.5551 15.3783 34.218 15.3783H32.5441C31.9992 15.3783 31.2544 15.3391 30.7644 15.0765C30.3254 14.8413 30.1764 14.3748 30.149 13.9083H26.2485C26.2603 15.2568 26.5857 16.6249 27.648 17.5343C28.8122 18.5339 30.6155 18.7299 32.0855 18.7143L34.6452 18.6907C36.1427 18.6751 38.0086 18.4673 39.2277 17.5069C40.3998 16.5818 40.6899 15.0255 40.6899 13.6143C40.6899 12.5089 40.4508 11.4426 39.8118 10.6782C39.267 10.0314 38.6554 9.81188 37.8518 9.60411C38.5222 9.44731 39.1023 9.27092 39.5923 8.83972C40.3724 8.15371 40.6899 7.09138 40.6899 5.91145C40.6899 5.11961 40.5762 4.26111 40.1842 3.56335C39.0788 1.59549 36.6915 1.28973 34.6531 1.28973H31.6386C29.2905 1.28973 27.107 2.08941 26.4955 4.57863C26.3309 5.2176 26.2603 5.87225 26.2525 6.53081Z" fill="black"/>
</svg>
